<svg xmlns="http://www.w3.org/2000/svg" viewBox="0 0 320 200" role="img" aria-labelledby="title desc">
  <title id="title">Vehicle image placeholder</title>
  <desc id="desc">Simple illustration representing a vehicle photograph placeholder.</desc>
  <defs>
    <linearGradient id="bg" x1="0%" x2="100%" y1="0%" y2="100%">
      <stop offset="0%" stop-color="#E2E8F0" />
      <stop offset="100%" stop-color="#CBD5F5" />
    </linearGradient>
  </defs>
  <rect x="0" y="0" width="320" height="200" fill="url(#bg)" />
  <path d="M48 152h224c13.254 0 24-10.746 24-24V104c0-8.837-7.163-16-16-16h-20.444l-24.31-38.896A24 24 0 0 0 215.502 40h-111.004a24 24 0 0 0-19.744 9.104L60.444 88H40c-8.837 0-16 7.163-16 16v24c0 13.254 10.746 24 24 24Z" fill="#1E3A8A" fill-opacity="0.18" />
  <circle cx="102" cy="148" r="18" fill="#1E3A8A" fill-opacity="0.3" />
  <circle cx="230" cy="148" r="18" fill="#1E3A8A" fill-opacity="0.3" />
  <path d="M120 88h80c4.418 0 8 3.582 8 8v16c0 4.418-3.582 8-8 8h-80c-4.418 0-8-3.582-8-8V96c0-4.418 3.582-8 8-8Z" fill="#1E3A8A" fill-opacity="0.2" />
  <path d="M58 128l44-36 52 46 38-30 70 56H48l10-36Z" fill="#1E40AF" fill-opacity="0.24" />
</svg>
